<?xml version="1.0" encoding="iso-8859-1"?>
<!-- Generator: Adobe Illustrator 19.0.0, SVG Export Plug-In . SVG Version: 6.00 Build 0)  -->
<svg version="1.1" id="Capa_1" xmlns="http://www.w3.org/2000/svg" xmlns:xlink="http://www.w3.org/1999/xlink" x="0px" y="0px"
	 viewBox="0 0 480 480" style="enable-background:new 0 0 480 480;" xml:space="preserve">
<g>
	<path style="fill:#FEC9A3;" d="M163.996,96h40v32h-40V96z"/>
	<path style="fill:#FEC9A3;" d="M319.996,8L319.996,8c15.464,0,28,12.536,28,28v24c0,15.464-12.536,28-28,28l0,0
		c-15.464,0-28-12.536-28-28V36C291.996,20.536,304.532,8,319.996,8z"/>
</g>
<path style="fill:#A15D30;" d="M347.996,56V36c0.062-15.429-12.394-27.986-27.823-28.049C306.204,7.895,294.34,18.166,292.396,32
	h31.6L347.996,56z"/>
<path style="fill:#FEC9A3;" d="M307.996,72h32v32h-32V72z"/>
<path style="fill:#65686B;" d="M283.996,128v144h80V129.448c0-18.473-14.975-33.448-33.448-33.448h-14.552
	C298.323,96,283.996,110.327,283.996,128z"/>
<path style="fill:#FEC9A3;" d="M191.996,40L191.996,40c15.464,0,28,12.536,28,28v24c0,15.464-12.536,28-28,28l0,0
	c-15.464,0-28-12.536-28-28V68C163.996,52.536,176.532,40,191.996,40z"/>
<path style="fill:#FFDDA6;" d="M227.996,216h-72v-72c0-13.255,10.745-24,24-24h24l21.928,18.272
	c13.15,10.963,14.923,30.511,3.959,43.661c-0.598,0.717-1.227,1.406-1.887,2.067V216z"/>
<path style="fill:#FFF3C9;" d="M155.996,216c-31.238,31.236-52.064,71.358-59.632,114.88l-14.552,83.68
	c-3.784,21.761-14.197,41.822-29.816,57.44h176V216H155.996z"/>
<path style="fill:#FEC9A3;" d="M179.996,120h8l40,88l20.888-76.584c1.839-6.738,7.959-11.414,14.944-11.416
	c8.554-0.003,15.49,6.929,15.493,15.483c0,1.352-0.176,2.699-0.525,4.005l-19.944,74.808c-4.039,15.159-17.768,25.707-33.456,25.704
	c-13.125,0.013-25.129-7.397-31-19.136L155.996,144C155.996,130.745,166.741,120,179.996,120z"/>
<path style="fill:#787D82;" d="M274.556,120c5.784,0.004,11.071,3.269,13.664,8.44L323.996,200v-84c0-11.046,8.954-20,20-20
	s20,8.954,20,20v85.84c-0.004,21.073-17.087,38.156-38.16,38.16c-15.61,0.002-29.648-9.504-35.44-24l-30.032-75.064
	c-3.128-7.833,0.686-16.719,8.519-19.847C270.688,120.368,272.613,119.999,274.556,120L274.556,120z"/>
<g>
	<path style="fill:#484A4D;" d="M323.996,472h-56l16-16V272h40V472z"/>
	<path style="fill:#484A4D;" d="M363.996,272v88l64,56l-40,48v-32l-64-56V272H363.996z"/>
</g>
<g>
	<path style="fill:#FFDDA6;" d="M91.996,344c-4.418,0.001-8.001-3.579-8.002-7.998c-0.001-3.164,1.863-6.031,4.754-7.314
		c46.998-20.875,90.578-48.719,129.272-82.592l4.704-4.112c3.479-2.723,8.507-2.111,11.231,1.368
		c2.507,3.203,2.212,7.778-0.687,10.632l-4.704,4.12c-39.904,34.944-84.849,63.669-133.32,85.208
		C94.222,343.768,93.115,344.002,91.996,344L91.996,344z"/>
	<path style="fill:#FFDDA6;" d="M75.996,440c-4.418-0.01-7.992-3.6-7.982-8.018c0.008-3.43,2.202-6.474,5.454-7.566
		c60.035-20.006,110.73-61.191,142.608-115.856l5.008-8.592c2.366-3.731,7.309-4.839,11.04-2.473
		c3.529,2.237,4.741,6.813,2.784,10.505l-5.016,8.592c-33.831,58.025-87.642,101.737-151.368,122.96
		C77.711,439.836,76.858,439.988,75.996,440z"/>
</g>
<path style="fill:#A15D30;" d="M191.996,40c-15.464,0-28,12.536-28,28v16l45.368-37.808C204.45,42.208,198.322,40.023,191.996,40z"
	/>
<path style="fill:#FFF3C9;" d="M83.996,216h72l24-176H168.66c-21.646-0.002-40.615,14.485-46.312,35.368L83.996,216z"/>
<path d="M371.996,356.368V116c0-15.464-12.536-28-28-28c-0.6,0-1.224,0.104-1.832,0.152c8.693-6.759,13.794-17.141,13.832-28.152V36
	c-0.022-19.873-16.127-35.978-36-36c-2.284,0.01-4.561,0.24-6.8,0.688c-1.16,0.224-2.248,0.624-3.368,0.952
	c-0.968,0.296-1.952,0.528-2.888,0.904c-1.374,0.56-2.711,1.209-4,1.944c-0.568,0.312-1.152,0.584-1.704,0.92
	c-1.377,0.869-2.694,1.828-3.944,2.872c-0.376,0.312-0.752,0.6-1.112,0.92c-1.272,1.141-2.462,2.37-3.56,3.68
	c-0.264,0.312-0.528,0.624-0.8,0.952c-1.087,1.374-2.071,2.826-2.944,4.344c-0.192,0.336-0.376,0.68-0.552,1.024
	c-0.854,1.581-1.584,3.226-2.184,4.92c-0.12,0.336-0.216,0.688-0.328,1.04c-0.575,1.779-1.011,3.601-1.304,5.448
	c0,0.088-0.048,0.16-0.056,0.248s0,0.136,0,0.208c-0.265,1.633-0.418,3.282-0.456,4.936v24c0.045,12.636,6.729,24.318,17.6,30.76
	c-10.004,3.994-17.982,11.845-22.136,21.784c-3.437-0.747-7.003-0.662-10.4,0.248c-12.238-3.048-24.651,4.318-27.84,16.52
	l-2.992,10.96c-1.981-3.036-4.381-5.778-7.128-8.144l-15.616-13.016c7.922-6.782,12.491-16.683,12.512-27.112V68
	c-0.011-10.938-5.02-21.271-13.6-28.056c-1.391-1.104-2.862-2.104-4.4-2.992h-0.04l-0.072-0.04L209.66,36.8l-0.12-0.072
	l-0.456-0.248l-0.112-0.064c-1.361-0.738-2.766-1.39-4.208-1.952h-0.04h-0.048h-0.048c-0.464-0.176-0.968-0.336-1.536-0.512
	l-0.8-0.232l-0.384-0.112c-1.052-0.324-2.12-0.591-3.2-0.8h-0.064c-2.162-0.46-4.359-0.731-6.568-0.808h-0.08h-0.088
	c-2.774-0.027-5.541,0.301-8.232,0.976c-1.128-0.622-2.392-0.957-3.68-0.976H168.66c-25.24,0.041-47.348,16.925-54.032,41.264
	L76.276,213.896c-1.162,4.263,1.352,8.66,5.614,9.822c0.686,0.187,1.394,0.282,2.106,0.282h53.824
	c-25.581,30.125-42.618,66.558-49.336,105.504l-14.552,83.68c-3.468,20.15-13.11,38.726-27.592,53.16
	c-3.124,3.125-3.123,8.19,0.002,11.314c1.5,1.499,3.534,2.342,5.654,2.342h176c4.418,0,8-3.582,8-8V246.488
	c14.887-3.784,26.577-15.3,30.584-30.128l6.136-23.016l3.28,8.192v251.152l-13.656,13.656c-3.124,3.125-3.123,8.19,0.002,11.314
	c1.5,1.499,3.534,2.342,5.654,2.342h56c4.418,0,8-3.582,8-8v-78.4l48,42V464c-0.002,4.418,3.577,8.002,7.996,8.004
	c2.375,0.001,4.627-1.053,6.148-2.876l40-48c2.788-3.337,2.401-8.289-0.872-11.152L371.996,356.368z M323.996,264h-32v-30.712
	c0.632,0.68,1.32,1.304,1.992,1.944c0.32,0.304,0.624,0.632,0.952,0.928c1.468,1.324,3.021,2.55,4.648,3.672
	c0.376,0.264,0.8,0.488,1.152,0.736c1.362,0.874,2.769,1.675,4.216,2.4c0.456,0.232,0.904,0.472,1.376,0.688
	c1.816,0.851,3.687,1.581,5.6,2.184c0.304,0.096,0.616,0.152,0.92,0.24c1.683,0.487,3.392,0.877,5.12,1.168
	c0.544,0.096,1.088,0.184,1.6,0.264c2.068,0.292,4.152,0.447,6.24,0.464c2.634-0.016,5.263-0.256,7.856-0.72
	c0.288-0.048,0.576-0.072,0.864-0.128c2.382-0.469,4.723-1.127,7-1.968c0.376-0.136,0.752-0.264,1.12-0.408
	c2.177-0.857,4.285-1.882,6.304-3.064c0.36-0.208,0.712-0.424,1.064-0.64c1.988-1.222,3.881-2.591,5.664-4.096
	c0.088-0.08,0.2-0.136,0.296-0.216V264L323.996,264z M355.996,116v85.832c0.006,16.657-13.491,30.165-30.148,30.172
	c-12.342,0.005-23.441-7.51-28.02-18.972l-19.2-48l-10.824-27.056c-0.731-1.759-0.705-3.741,0.072-5.48
	c0.807-1.813,2.305-3.23,4.16-3.936c2.442-1.095,5.305-0.57,7.2,1.32c0.74,0.584,1.36,1.307,1.824,2.128l35.776,71.552
	c0.385,0.745,0.884,1.426,1.48,2.016c0.189,0.176,0.389,0.339,0.6,0.488c0.424,0.368,0.888,0.688,1.384,0.952
	c0.259,0.132,0.526,0.246,0.8,0.344c0.5,0.2,1.021,0.345,1.552,0.432c0.282,0.061,0.568,0.101,0.856,0.12
	c0.168,0,0.328,0.072,0.504,0.072c0.619-0.002,1.236-0.072,1.84-0.208c3.6-0.859,6.141-4.075,6.144-7.776v-84
	c0.007-5.272,3.485-9.909,8.544-11.392c1.115-0.377,2.28-0.582,3.456-0.608C350.624,104,355.996,109.373,355.996,116L355.996,116z
	 M339.996,36v0.688l-10.344-10.344c-1.5-1.5-3.534-2.344-5.656-2.344h-19.864c0.893-1.178,1.915-2.251,3.048-3.2l0.184-0.152
	c1.037-0.855,2.157-1.602,3.344-2.232c0.192-0.104,0.376-0.216,0.576-0.312c1.104-0.537,2.255-0.968,3.44-1.288
	c0.272-0.072,0.536-0.184,0.8-0.256c1.464-0.358,2.965-0.546,4.472-0.56C331.042,16,339.996,24.954,339.996,36L339.996,36z
	 M299.996,40h20.688l19.312,19.312V60c0,11.046-8.954,20-20,20s-20-8.954-20-20V40z M315.996,104h2.696
	c-0.136,0.28-0.184,0.592-0.304,0.88c-0.569,1.294-1.034,2.632-1.392,4c-0.136,0.504-0.272,1.008-0.376,1.528
	c-0.397,1.841-0.606,3.717-0.624,5.6v50.112l-20.624-41.248c-0.633-1.264-1.395-2.46-2.272-3.568
	C296.063,111.105,305.376,104.067,315.996,104L315.996,104z M229.052,161.032c0.305,6.134-1.878,12.131-6.056,16.632l-12.24-26.928
	L200.42,128h0.68l19.696,16.424C225.789,148.53,228.793,154.572,229.052,161.032L229.052,161.032z M199.332,239.064
	c0.88,0.68,1.784,1.336,2.72,1.944c0.616,0.408,1.248,0.8,1.888,1.176c0.968,0.56,1.952,1.072,2.968,1.6
	c0.656,0.32,1.32,0.632,1.992,0.92c1.064,0.44,2.16,0.8,3.256,1.176c0.672,0.216,1.328,0.456,2.008,0.64
	c0.888,0.24,1.792,0.408,2.696,0.592c-33.373,29.028-70.37,53.606-110.064,73.12c8.461-36.252,26.627-69.518,52.552-96.232h27.704
	l0.216,0.44c0.861,1.701,1.831,3.344,2.904,4.92c0.336,0.496,0.728,0.944,1.08,1.432c0.8,1.032,1.544,2.048,2.4,3
	c0.464,0.52,0.968,1,1.464,1.504c0.8,0.8,1.6,1.6,2.504,2.4C198.172,238.16,198.748,238.608,199.332,239.064L199.332,239.064z
	 M102.948,339.712c42.12-19.524,81.477-44.527,117.048-74.36v36.488l-3.92,6.72c-29.004,49.708-73.666,88.4-127,110.024
	c0.176-0.896,0.464-1.752,0.616-2.656L102.948,339.712z M211.996,68v24c0,11.046-8.954,20-20,20
	c-4.82-0.018-9.467-1.799-13.064-5.008l2.056-15.056l1.8-13.176l25.92-21.6C210.849,60.37,211.993,64.142,211.996,68z M165.156,208
	l2.984-21.832L179.052,208H165.156z M193.38,48.144c0.344,0,0.68,0.056,1.016,0.104l-2.048,1.712l-6.4,5.296l0.072-0.496l0.8-6.032
	C188.954,48.142,191.176,47.945,193.38,48.144L193.38,48.144z M130.068,77.472C134.84,60.087,150.632,48.026,168.66,48h2.168
	l-21.816,160H94.468L130.068,77.472z M69.348,464c5.834-8.076,10.584-16.881,14.128-26.192
	c55.616-19.706,103.459-56.705,136.52-105.576V464H69.348z M262.78,168.504l-11.656,43.728
	c-2.96,10.915-12.496,18.767-23.776,19.576l-1.144,0.112c-0.265,0.043-0.532,0.069-0.8,0.08c-10.092,0.03-19.324-5.678-23.808-14.72
	l-2.4-4.856l-27.2-54.4l3.384-24.8l0.64-4.688c1.294-0.36,2.632-0.541,3.976-0.536h2.848l37.872,83.312
	c0.337,0.74,0.788,1.423,1.336,2.024c0.072,0.072,0.16,0.12,0.232,0.2c0.472,0.504,1.011,0.943,1.6,1.304
	c0.08,0.048,0.168,0.072,0.24,0.112c0.608,0.349,1.259,0.618,1.936,0.8c0.176,0,0.352,0,0.536,0.072
	c0.461,0.1,0.929,0.159,1.4,0.176h0.408c0,0,0.152,0,0.232,0s0.216-0.064,0.336-0.08c0.24,0,0.48,0,0.72-0.072
	s0.376-0.176,0.584-0.24c0.483-0.148,0.951-0.338,1.4-0.568c0.322-0.165,0.632-0.352,0.928-0.56c0.393-0.29,0.759-0.614,1.096-0.968
	c0.252-0.253,0.49-0.52,0.712-0.8c0.279-0.406,0.52-0.838,0.72-1.288c0.174-0.319,0.323-0.651,0.448-0.992
	c0-0.112,0.104-0.2,0.136-0.304l17.72-64.968l2.256,5.648L262.78,168.504z M315.996,464h-28.688l2.344-2.344
	c1.5-1.5,2.344-3.534,2.344-5.656V280h24V464z M395.996,441.904V432c-0.004-2.306-0.998-4.5-2.728-6.024l-61.272-53.608V280h24v80
	c0.004,2.306,0.998,4.5,2.728,6.024l58.128,50.848L395.996,441.904z"/>
<g>
</g>
<g>
</g>
<g>
</g>
<g>
</g>
<g>
</g>
<g>
</g>
<g>
</g>
<g>
</g>
<g>
</g>
<g>
</g>
<g>
</g>
<g>
</g>
<g>
</g>
<g>
</g>
<g>
</g>
</svg>
