<svg xmlns="http://www.w3.org/2000/svg" viewBox="0 0 560 419.61"><defs><style>.cls-1{fill:none;stroke:#000;stroke-miterlimit:10;}</style></defs><title>tvmc</title><g id="Layer_2" data-name="Layer 2"><g id="Layer_1-2" data-name="Layer 1"><path class="cls-1" d="M.5,208.5c0,47.06,12.37,103.18,35,144,21.94,39.58,39.31,47.87,80,56.23,65.14,13.38,145,10,165,10s94.86,2.38,160-11c40.69-8.36,59.06-15.65,81-55.23,22.63-40.82,38-85.77,38-144.77,0,0,0-60-22-111-17.93-41.56-37-73-86-84-54.19-12.17-144-12-167-12C265.5.73,178.33-2,113.19,11.37,72.5,19.73,57.44,25.15,35.5,64.73c-22.63,40.82-35,96.94-35,144"/></g></g></svg>