<?xml version="1.0"?>
<svg xmlns="http://www.w3.org/2000/svg" id="Capa_1" enable-background="new 0 0 512 512" height="512px" viewBox="0 0 512 512" width="512px" class=""><g><path d="m499.352 185.474-208.228-172.803c-20.354-16.889-49.896-16.888-70.248 0l-208.228 172.803c-8.038 6.671-12.648 16.488-12.648 26.934v244.587c0 30.327 24.673 55 55 55h402c30.327 0 55-24.673 55-55v-244.587c0-10.445-4.61-20.262-12.648-26.934zm-17.352 271.521c0 3.031-.543 5.938-1.536 8.628l-152.558-104.547 154.094-127.879zm-452 0v-223.798l154.094 127.879-152.558 104.548c-.993-2.691-1.536-5.597-1.536-8.629zm391-212.16-149.459 124.032c-9.005 7.473-22.077 7.474-31.083 0l-149.458-124.032v-19.819c0-2.757 2.243-5 5-5h320c2.757 0 5 2.243 5 5zm-212.902 136.161 13.203 10.957c10.053 8.343 22.376 12.515 34.7 12.515s24.646-4.172 34.699-12.515l13.203-10.957 147.382 101h-390.569zm31.937-345.239c4.625-3.838 10.295-5.757 15.965-5.757s11.34 1.919 15.966 5.757l200.486 166.379-21.789 18.082c-2.347-17.036-16.992-30.203-34.663-30.203h-320c-17.671 0-32.316 13.167-34.663 30.203l-21.789-18.082z" data-original="#000000" class="active-path" data-old_color="#000000" fill="#FFFFFF"/></g> </svg>
